<svg width="450" height="112" viewBox="0 0 450 112" fill="none" xmlns="http://www.w3.org/2000/svg">
<path d="M179.275 64.6003C179.275 66.0228 179.42 67.1018 179.71 67.8376C180 68.5733 180.58 69.0638 181.45 69.3091C182.321 69.5543 183.655 69.6769 185.454 69.6769C185.628 69.6769 185.715 69.8241 185.715 70.1184C185.715 70.4127 185.628 70.5598 185.454 70.5598C183.945 70.5598 182.263 70.5353 180.406 70.4862C178.549 70.4372 176.519 70.4127 174.314 70.4127C172.225 70.4127 170.223 70.4372 168.309 70.4862C166.394 70.5353 164.683 70.5598 163.174 70.5598C163.058 70.5598 163 70.4127 163 70.1184C163 69.8241 163.058 69.6769 163.174 69.6769C164.973 69.6769 166.307 69.5543 167.177 69.3091C168.106 69.0638 168.715 68.5733 169.005 67.8376C169.353 67.1018 169.527 66.0228 169.527 64.6003V30.5358C169.527 29.1134 169.353 28.0588 169.005 27.3721C168.715 26.6364 168.106 26.1459 167.177 25.9006C166.307 25.6064 164.973 25.4592 163.174 25.4592C163.058 25.4592 163 25.3121 163 25.0178C163 24.7235 163.058 24.5763 163.174 24.5763C164.683 24.5763 166.394 24.6254 168.309 24.7235C170.223 24.7725 172.225 24.797 174.314 24.797C176.519 24.797 178.549 24.7725 180.406 24.7235C182.321 24.6254 184.003 24.5763 185.454 24.5763C185.628 24.5763 185.715 24.7235 185.715 25.0178C185.715 25.3121 185.628 25.4592 185.454 25.4592C183.713 25.4592 182.379 25.6064 181.45 25.9006C180.58 26.1949 180 26.71 179.71 27.4457C179.42 28.1814 179.275 29.2605 179.275 30.6829V64.6003Z" fill="#1C1C1E"/>
<path d="M204.408 32.0073C204.408 33.8711 204.96 35.5143 206.062 36.9367C207.222 38.3101 208.702 39.5608 210.501 40.6889C212.357 41.8171 214.301 42.9452 216.332 44.0733C218.536 45.2505 220.625 46.5012 222.598 47.8256C224.628 49.1008 226.282 50.5968 227.558 52.3136C228.893 53.9812 229.56 55.9922 229.56 58.3466C229.56 60.9462 228.719 63.227 227.036 65.1889C225.412 67.1509 223.178 68.6959 220.335 69.8241C217.55 70.9031 214.359 71.4427 210.762 71.4427C209.021 71.4427 207.193 71.2955 205.279 71.0012C203.422 70.707 201.711 70.3391 200.144 69.8976C198.636 69.4562 197.533 68.9902 196.837 68.4997C196.605 68.3526 196.402 68.2055 196.228 68.0583C196.054 67.8621 195.967 67.5433 195.967 67.1018L195.706 55.4036C195.647 55.1584 195.764 55.0358 196.054 55.0358C196.402 54.9867 196.605 55.0603 196.663 55.2565C197.533 56.777 198.49 58.3956 199.535 60.1124C200.579 61.78 201.74 63.3251 203.016 64.7475C204.35 66.1699 205.83 67.3471 207.455 68.279C209.079 69.1619 210.936 69.6033 213.024 69.6033C214.359 69.6033 215.635 69.4072 216.854 69.0148C218.072 68.6224 219.058 67.9112 219.813 66.8811C220.625 65.8511 221.031 64.4287 221.031 62.6139C221.031 60.3086 220.422 58.3466 219.204 56.728C217.985 55.0603 216.419 53.6134 214.504 52.3871C212.589 51.1119 210.588 49.9102 208.499 48.782C206.468 47.6539 204.525 46.5012 202.668 45.3241C200.811 44.0978 199.303 42.7245 198.142 41.204C196.982 39.6344 196.402 37.7705 196.402 35.6124C196.402 32.8656 197.301 30.6339 199.1 28.9172C200.956 27.1514 203.277 25.8516 206.062 25.0178C208.905 24.1839 211.777 23.767 214.678 23.767C216.767 23.767 218.855 23.9387 220.944 24.282C223.033 24.5763 224.686 24.9442 225.905 25.3856C226.485 25.5818 226.833 25.8025 226.949 26.0478C227.123 26.293 227.21 26.5628 227.21 26.8571V37.6724C227.21 37.8196 227.065 37.9422 226.775 38.0403C226.543 38.0893 226.369 38.0403 226.253 37.8931C225.905 37.3046 225.412 36.3481 224.773 35.0238C224.135 33.6504 223.294 32.228 222.25 30.7565C221.205 29.285 219.871 28.0343 218.246 27.0043C216.622 25.9252 214.649 25.3856 212.328 25.3856C210.878 25.3856 209.543 25.6309 208.325 26.1214C207.164 26.6119 206.207 27.3476 205.453 28.3286C204.757 29.2605 204.408 30.4867 204.408 32.0073Z" fill="#1C1C1E"/>
<path d="M253.376 26.2685C249.836 26.2685 246.819 27.274 244.325 29.285C241.888 31.247 239.944 34.0428 238.494 37.6724C238.436 37.8196 238.261 37.8931 237.971 37.8931C237.681 37.8441 237.536 37.746 237.536 37.5988C237.652 36.9122 237.768 35.9557 237.884 34.7295C238 33.4542 238.116 32.0808 238.232 30.6094C238.407 29.1379 238.523 27.7155 238.581 26.3421C238.697 24.9687 238.755 23.8406 238.755 22.9577C238.755 22.7125 238.9 22.5898 239.19 22.5898C239.538 22.5898 239.712 22.7125 239.712 22.9577C239.712 23.4482 240.002 23.8161 240.582 24.0613C241.22 24.2575 241.917 24.4047 242.671 24.5027C243.483 24.5518 244.15 24.5763 244.673 24.5763C249.662 24.7235 255.493 24.797 262.166 24.797C266.227 24.797 269.476 24.7725 271.913 24.7235C274.35 24.6254 276.7 24.5763 278.962 24.5763C281.051 24.5763 282.618 24.4782 283.662 24.282C284.764 24.0368 285.461 23.5218 285.751 22.737C285.809 22.5408 285.983 22.4427 286.273 22.4427C286.621 22.4427 286.795 22.5408 286.795 22.737C286.679 23.5218 286.563 24.6254 286.447 26.0478C286.389 27.4212 286.302 28.8926 286.186 30.4622C286.128 31.9827 286.07 33.4052 286.012 34.7295C285.954 36.0048 285.925 36.9612 285.925 37.5988C285.925 37.746 285.78 37.8196 285.49 37.8196C285.2 37.8196 285.025 37.746 284.967 37.5988C284.097 33.724 282.444 30.8791 280.007 29.0643C277.628 27.2004 274.727 26.2685 271.304 26.2685C270.143 26.2685 269.244 26.4157 268.606 26.71C268.026 26.9552 267.62 27.3966 267.387 28.0343C267.213 28.6719 267.126 29.5548 267.126 30.6829V64.6003C267.126 66.0228 267.3 67.1018 267.649 67.8376C267.997 68.5733 268.664 69.0638 269.65 69.3091C270.695 69.5543 272.261 69.6769 274.35 69.6769C274.524 69.6769 274.611 69.8241 274.611 70.1184C274.611 70.4127 274.524 70.5598 274.35 70.5598C272.725 70.5598 270.898 70.5353 268.867 70.4862C266.836 70.4372 264.602 70.4127 262.166 70.4127C259.845 70.4127 257.669 70.4372 255.638 70.4862C253.608 70.5353 251.751 70.5598 250.069 70.5598C249.894 70.5598 249.807 70.4127 249.807 70.1184C249.807 69.8241 249.894 69.6769 250.069 69.6769C252.099 69.6769 253.637 69.5543 254.681 69.3091C255.725 69.0638 256.422 68.5733 256.77 67.8376C257.176 67.1018 257.379 66.0228 257.379 64.6003V30.5358C257.379 29.4567 257.263 28.6229 257.031 28.0343C256.857 27.3966 256.48 26.9552 255.899 26.71C255.319 26.4157 254.478 26.2685 253.376 26.2685Z" fill="#1C1C1E"/>
<path d="M300.161 61.216L301.031 26.2685L303.555 26.4157L302.598 61.216C302.54 63.8156 303.149 65.8756 304.425 67.3961C305.76 68.9167 307.616 69.6769 309.995 69.6769C310.169 69.6769 310.256 69.8241 310.256 70.1184C310.256 70.4127 310.169 70.5598 309.995 70.5598C308.719 70.5598 307.413 70.5353 306.079 70.4862C304.744 70.4372 303.236 70.4127 301.553 70.4127C299.697 70.4127 298.014 70.4372 296.506 70.4862C294.997 70.5353 293.605 70.5598 292.328 70.5598C292.154 70.5598 292.067 70.4127 292.067 70.1184C292.067 69.8241 292.154 69.6769 292.328 69.6769C294.707 69.6769 296.593 68.9167 297.985 67.3961C299.378 65.8756 300.103 63.8156 300.161 61.216ZM362.474 69.6769C362.59 69.6769 362.648 69.8241 362.648 70.1184C362.648 70.4127 362.59 70.5598 362.474 70.5598C360.966 70.5598 359.254 70.5353 357.339 70.4862C355.425 70.4372 353.423 70.4127 351.334 70.4127C349.188 70.4127 347.186 70.4372 345.329 70.4862C343.473 70.5353 341.79 70.5598 340.282 70.5598C340.108 70.5598 340.021 70.4127 340.021 70.1184C340.021 69.8241 340.108 69.6769 340.282 69.6769C343.009 69.6769 344.749 69.3581 345.503 68.7205C346.316 68.0828 346.635 66.7095 346.461 64.6003L344.459 31.9337L348.898 26.0478L326.705 70.0448C326.647 70.241 326.415 70.3391 326.009 70.3391C325.661 70.3391 325.429 70.241 325.313 70.0448L300.857 30.6829C298.652 27.2004 296.013 25.4592 292.937 25.4592C292.763 25.4592 292.676 25.3121 292.676 25.0178C292.676 24.7235 292.763 24.5763 292.937 24.5763C294.156 24.5763 295.432 24.6008 296.767 24.6499C298.101 24.6989 299.233 24.7235 300.161 24.7235C301.669 24.7235 302.975 24.6989 304.077 24.6499C305.238 24.6008 306.137 24.5763 306.775 24.5763C307.587 24.5763 308.197 24.8216 308.603 25.3121C309.067 25.8025 309.792 26.8326 310.779 28.4021L330.273 59.303L325.922 65.9247L346.287 26.4157C346.635 25.729 346.983 25.263 347.331 25.0178C347.737 24.7235 348.259 24.5763 348.898 24.5763C349.478 24.5763 350.087 24.6008 350.725 24.6499C351.363 24.6989 352.118 24.7235 352.988 24.7235C354.845 24.7235 356.411 24.6989 357.688 24.6499C359.022 24.6008 360.327 24.5763 361.604 24.5763C361.778 24.5763 361.865 24.7235 361.865 25.0178C361.865 25.3121 361.778 25.4592 361.604 25.4592C358.935 25.4592 356.962 25.9252 355.686 26.8571C354.467 27.789 353.916 29.236 354.032 31.1979L356.121 64.6003C356.237 66.0228 356.44 67.1018 356.73 67.8376C357.078 68.5733 357.688 69.0638 358.558 69.3091C359.428 69.5543 360.734 69.6769 362.474 69.6769Z" fill="#1C1C1E"/>
<path d="M396.453 71.4427C392.275 71.4427 388.475 70.8296 385.052 69.6033C381.687 68.3281 378.786 66.5868 376.349 64.3796C373.97 62.1724 372.113 59.6464 370.779 56.8015C369.502 53.9077 368.864 50.8421 368.864 47.6049C368.864 43.6319 369.763 40.1494 371.562 37.1574C373.419 34.1654 375.855 31.6884 378.873 29.7265C381.89 27.7155 385.197 26.2195 388.794 25.2385C392.391 24.2575 395.959 23.767 399.499 23.767C403.792 23.767 407.621 24.4292 410.987 25.7535C414.41 27.0288 417.311 28.77 419.689 30.9772C422.068 33.1844 423.867 35.6859 425.085 38.4817C426.362 41.2775 427 44.1469 427 47.0898C427 50.5233 426.188 53.7115 424.563 56.6544C422.939 59.5973 420.705 62.1724 417.862 64.3796C415.077 66.5868 411.828 68.3281 408.115 69.6033C404.459 70.8296 400.572 71.4427 396.453 71.4427ZM399.325 69.6033C402.574 69.6033 405.475 68.8186 408.028 67.249C410.58 65.6794 412.582 63.3741 414.033 60.3331C415.541 57.292 416.295 53.5888 416.295 49.2235C416.295 44.711 415.483 40.6889 413.858 37.1574C412.234 33.6259 409.913 30.8546 406.896 28.8436C403.879 26.7835 400.253 25.7535 396.017 25.7535C390.738 25.7535 386.676 27.4457 383.833 30.8301C380.99 34.2145 379.569 38.8986 379.569 44.8826C379.569 48.4632 380.062 51.774 381.048 54.8151C382.035 57.8071 383.398 60.4312 385.139 62.6874C386.937 64.8946 389.026 66.6114 391.405 67.8376C393.842 69.0148 396.482 69.6033 399.325 69.6033Z" fill="#1C1C1E"/>
<path d="M173.614 105.719C171.973 105.719 170.486 105.366 169.152 104.661C167.833 103.94 166.791 102.951 166.024 101.694C165.273 100.421 164.897 98.9874 164.897 97.3927C164.897 95.798 165.273 94.372 166.024 93.1147C166.791 91.842 167.833 90.853 169.152 90.1477C170.486 89.427 171.981 89.0667 173.637 89.0667C175.032 89.0667 176.29 89.312 177.409 89.8027C178.544 90.2934 179.494 90.9987 180.261 91.9187L177.869 94.1267C176.78 92.8694 175.431 92.2407 173.821 92.2407C172.824 92.2407 171.935 92.463 171.153 92.9077C170.371 93.337 169.758 93.9427 169.313 94.7247C168.884 95.5067 168.669 96.396 168.669 97.3927C168.669 98.3894 168.884 99.2787 169.313 100.061C169.758 100.843 170.371 101.456 171.153 101.901C171.935 102.33 172.824 102.545 173.821 102.545C175.431 102.545 176.78 101.908 177.869 100.636L180.261 102.844C179.494 103.779 178.544 104.492 177.409 104.983C176.274 105.473 175.009 105.719 173.614 105.719ZM198.287 105.719C196.616 105.719 195.106 105.358 193.756 104.638C192.422 103.917 191.372 102.928 190.605 101.671C189.854 100.398 189.478 98.972 189.478 97.3927C189.478 95.8134 189.854 94.395 190.605 93.1377C191.372 91.865 192.422 90.8684 193.756 90.1477C195.106 89.427 196.616 89.0667 198.287 89.0667C199.959 89.0667 201.461 89.427 202.795 90.1477C204.129 90.8684 205.18 91.865 205.946 93.1377C206.713 94.395 207.096 95.8134 207.096 97.3927C207.096 98.972 206.713 100.398 205.946 101.671C205.18 102.928 204.129 103.917 202.795 104.638C201.461 105.358 199.959 105.719 198.287 105.719ZM198.287 102.545C199.238 102.545 200.097 102.33 200.863 101.901C201.63 101.456 202.228 100.843 202.657 100.061C203.102 99.2787 203.324 98.3894 203.324 97.3927C203.324 96.396 203.102 95.5067 202.657 94.7247C202.228 93.9427 201.63 93.337 200.863 92.9077C200.097 92.463 199.238 92.2407 198.287 92.2407C197.337 92.2407 196.478 92.463 195.711 92.9077C194.945 93.337 194.339 93.9427 193.894 94.7247C193.465 95.5067 193.25 96.396 193.25 97.3927C193.25 98.3894 193.465 99.2787 193.894 100.061C194.339 100.843 194.945 101.456 195.711 101.901C196.478 102.33 197.337 102.545 198.287 102.545ZM232.712 89.3427V105.443H229.653L221.626 95.6677V105.443H217.946V89.3427H221.028L229.032 99.1177V89.3427H232.712ZM249.862 105.719C248.589 105.719 247.355 105.55 246.159 105.213C244.978 104.86 244.027 104.408 243.307 103.856L244.572 101.05C245.262 101.556 246.082 101.962 247.033 102.269C247.983 102.575 248.934 102.729 249.885 102.729C250.943 102.729 251.725 102.575 252.231 102.269C252.737 101.947 252.99 101.525 252.99 101.004C252.99 100.62 252.836 100.306 252.53 100.061C252.238 99.8 251.855 99.593 251.38 99.4397C250.92 99.2864 250.291 99.1177 249.494 98.9337C248.267 98.6424 247.263 98.351 246.481 98.0597C245.699 97.7684 245.024 97.3007 244.457 96.6567C243.905 96.0127 243.629 95.154 243.629 94.0807C243.629 93.1454 243.882 92.302 244.388 91.5507C244.894 90.784 245.653 90.1784 246.665 89.7337C247.692 89.289 248.942 89.0667 250.414 89.0667C251.441 89.0667 252.445 89.1894 253.427 89.4347C254.408 89.68 255.267 90.0327 256.003 90.4927L254.853 93.3217C253.365 92.4784 251.878 92.0567 250.391 92.0567C249.348 92.0567 248.574 92.2254 248.068 92.5627C247.577 92.9 247.332 93.3447 247.332 93.8967C247.332 94.4487 247.615 94.8627 248.183 95.1387C248.765 95.3994 249.647 95.66 250.828 95.9207C252.054 96.212 253.059 96.5034 253.841 96.7947C254.623 97.086 255.29 97.546 255.842 98.1747C256.409 98.8034 256.693 99.6544 256.693 100.728C256.693 101.648 256.432 102.491 255.911 103.258C255.405 104.009 254.638 104.607 253.611 105.052C252.583 105.496 251.334 105.719 249.862 105.719ZM274.442 105.719C272.142 105.719 270.348 105.082 269.06 103.81C267.787 102.537 267.151 100.72 267.151 98.3587V89.3427H270.877V98.2207C270.877 101.103 272.073 102.545 274.465 102.545C275.63 102.545 276.519 102.2 277.133 101.51C277.746 100.804 278.053 99.708 278.053 98.2207V89.3427H281.733V98.3587C281.733 100.72 281.089 102.537 279.801 103.81C278.528 105.082 276.742 105.719 274.442 105.719ZM293.465 89.3427H297.191V102.407H305.264V105.443H293.465V89.3427ZM317.226 92.3787H312.074V89.3427H326.104V92.3787H320.952V105.443H317.226V92.3787ZM343.731 105.719C342.059 105.719 340.549 105.358 339.2 104.638C337.866 103.917 336.815 102.928 336.049 101.671C335.297 100.398 334.922 98.972 334.922 97.3927C334.922 95.8134 335.297 94.395 336.049 93.1377C336.815 91.865 337.866 90.8684 339.2 90.1477C340.549 89.427 342.059 89.0667 343.731 89.0667C345.402 89.0667 346.905 89.427 348.239 90.1477C349.573 90.8684 350.623 91.865 351.39 93.1377C352.156 94.395 352.54 95.8134 352.54 97.3927C352.54 98.972 352.156 100.398 351.39 101.671C350.623 102.928 349.573 103.917 348.239 104.638C346.905 105.358 345.402 105.719 343.731 105.719ZM343.731 102.545C344.681 102.545 345.54 102.33 346.307 101.901C347.073 101.456 347.671 100.843 348.101 100.061C348.545 99.2787 348.768 98.3894 348.768 97.3927C348.768 96.396 348.545 95.5067 348.101 94.7247C347.671 93.9427 347.073 93.337 346.307 92.9077C345.54 92.463 344.681 92.2407 343.731 92.2407C342.78 92.2407 341.921 92.463 341.155 92.9077C340.388 93.337 339.782 93.9427 339.338 94.7247C338.908 95.5067 338.694 96.396 338.694 97.3927C338.694 98.3894 338.908 99.2787 339.338 100.061C339.782 100.843 340.388 101.456 341.155 101.901C341.921 102.33 342.78 102.545 343.731 102.545ZM373.648 105.443L370.543 100.958H370.359H367.116V105.443H363.39V89.3427H370.359C371.785 89.3427 373.019 89.5804 374.062 90.0557C375.12 90.531 375.933 91.2057 376.5 92.0797C377.067 92.9537 377.351 93.9887 377.351 95.1847C377.351 96.3807 377.06 97.4157 376.477 98.2897C375.91 99.1484 375.097 99.8077 374.039 100.268L377.65 105.443H373.648ZM373.579 95.1847C373.579 94.28 373.288 93.59 372.705 93.1147C372.122 92.624 371.271 92.3787 370.152 92.3787H367.116V97.9907H370.152C371.271 97.9907 372.122 97.7454 372.705 97.2547C373.288 96.764 373.579 96.074 373.579 95.1847ZM400.819 102.453V105.443H388.353V89.3427H400.52V92.3327H392.056V95.8287H399.531V98.7267H392.056V102.453H400.819ZM417.124 105.719C415.851 105.719 414.617 105.55 413.421 105.213C412.24 104.86 411.289 104.408 410.569 103.856L411.834 101.05C412.524 101.556 413.344 101.962 414.295 102.269C415.245 102.575 416.196 102.729 417.147 102.729C418.205 102.729 418.987 102.575 419.493 102.269C419.999 101.947 420.252 101.525 420.252 101.004C420.252 100.62 420.098 100.306 419.792 100.061C419.5 99.8 419.117 99.593 418.642 99.4397C418.182 99.2864 417.553 99.1177 416.756 98.9337C415.529 98.6424 414.525 98.351 413.743 98.0597C412.961 97.7684 412.286 97.3007 411.719 96.6567C411.167 96.0127 410.891 95.154 410.891 94.0807C410.891 93.1454 411.144 92.302 411.65 91.5507C412.156 90.784 412.915 90.1784 413.927 89.7337C414.954 89.289 416.204 89.0667 417.676 89.0667C418.703 89.0667 419.707 89.1894 420.689 89.4347C421.67 89.68 422.529 90.0327 423.265 90.4927L422.115 93.3217C420.627 92.4784 419.14 92.0567 417.653 92.0567C416.61 92.0567 415.836 92.2254 415.33 92.5627C414.839 92.9 414.594 93.3447 414.594 93.8967C414.594 94.4487 414.877 94.8627 415.445 95.1387C416.027 95.3994 416.909 95.66 418.09 95.9207C419.316 96.212 420.321 96.5034 421.103 96.7947C421.885 97.086 422.552 97.546 423.104 98.1747C423.671 98.8034 423.955 99.6544 423.955 100.728C423.955 101.648 423.694 102.491 423.173 103.258C422.667 104.009 421.9 104.607 420.873 105.052C419.845 105.496 418.596 105.719 417.124 105.719Z" fill="#6B6B6B"/>
<path d="M58.1979 44.3229V86.7187L87.4896 85.9479V30.8333L58.1979 44.3229Z" fill="url(#paint0_linear_25_2)"/>
<path d="M97.8958 16.5729V86.7188C99.1805 86.7188 106.067 87.4125 112.542 88.6458C119.017 89.8792 124.361 91.6007 127.573 92.5V0L97.8958 16.5729Z" fill="url(#paint1_linear_25_2)"/>
<path d="M18.5 22.7396V96.3541C20.8125 95.7118 25.4375 94.0416 32.7604 92.1146C38.7016 90.5511 45.4792 89.0312 48.1771 88.6458V31.6041L18.5 22.7396Z" fill="url(#paint2_linear_25_2)"/>
<path d="M43.5521 95.1979C20.1187 99.8229 4.75347 107.917 0 111.385C11.9479 108.687 27.9042 108.687 33.1458 108.687C38.3875 108.687 44.9653 109.715 51.2604 110.229C59.7396 105.99 75.1562 100.517 92.1146 98.6666C109.073 96.8166 139.649 100.594 148 102.906C130.117 96.4312 109.201 93.6562 101.75 92.8854C91.6007 91.8576 66.9854 90.5729 43.5521 95.1979Z" fill="url(#paint3_linear_25_2)"/>
<path d="M98.6667 111V103.677C103.292 102.906 108.302 102.521 115.625 102.521C120.558 102.521 126.031 102.906 127.958 103.292V111H98.6667Z" fill="url(#paint4_linear_25_2)"/>
<defs>
<linearGradient id="paint0_linear_25_2" x1="46.6354" y1="105.219" x2="105.219" y2="24.6667" gradientUnits="userSpaceOnUse">
<stop stop-color="#2E5090"/>
<stop offset="1" stop-color="#5B8CC8"/>
</linearGradient>
<linearGradient id="paint1_linear_25_2" x1="112.542" y1="21.5833" x2="112.542" y2="65.9063" gradientUnits="userSpaceOnUse">
<stop stop-color="#9EC3E8"/>
<stop offset="1" stop-color="#5B8CC8"/>
</linearGradient>
<linearGradient id="paint2_linear_25_2" x1="18.5" y1="76.0865" x2="48.1771" y2="43.0072" gradientUnits="userSpaceOnUse">
<stop stop-color="#1B2E4E"/>
<stop offset="1" stop-color="#3E6AB4"/>
</linearGradient>
<linearGradient id="paint3_linear_25_2" x1="-64.3646" y1="91.7291" x2="-62.2725" y2="72.1882" gradientUnits="userSpaceOnUse">
<stop stop-color="#1B2E4E"/>
<stop offset="0.922289" stop-color="#3E6AB4"/>
</linearGradient>
<linearGradient id="paint4_linear_25_2" x1="104.448" y1="121.021" x2="109.026" y2="87.5406" gradientUnits="userSpaceOnUse">
<stop stop-color="#1B2E4E"/>
<stop offset="0.964214" stop-color="#3E6AB4"/>
</linearGradient>
</defs>
</svg>
