<svg width="287" height="261" viewBox="0 0 287 261" fill="none" xmlns="http://www.w3.org/2000/svg">
<path d="M16.2746 219.158C16.2746 220.58 16.4196 221.659 16.7097 222.395C16.9998 223.131 17.58 223.621 18.4503 223.866C19.3206 224.112 20.6551 224.234 22.4537 224.234C22.6277 224.234 22.7148 224.381 22.7148 224.676C22.7148 224.97 22.6277 225.117 22.4537 225.117C20.9452 225.117 19.2626 225.093 17.406 225.044C15.5493 224.994 13.5186 224.97 11.3139 224.97C9.22515 224.97 7.22347 224.994 5.30882 225.044C3.39416 225.093 1.68258 225.117 0.17406 225.117C0.0580199 225.117 0 224.97 0 224.676C0 224.381 0.0580199 224.234 0.17406 224.234C1.97267 224.234 3.30713 224.112 4.17743 223.866C5.10575 223.621 5.71495 223.131 6.00505 222.395C6.35317 221.659 6.52723 220.58 6.52723 219.158V185.093C6.52723 183.671 6.35317 182.616 6.00505 181.929C5.71495 181.194 5.10575 180.703 4.17743 180.458C3.30713 180.164 1.97267 180.017 0.17406 180.017C0.0580199 180.017 0 179.869 0 179.575C0 179.281 0.0580199 179.134 0.17406 179.134C1.68258 179.134 3.39416 179.183 5.30882 179.281C7.22347 179.33 9.22515 179.354 11.3139 179.354C13.5186 179.354 15.5493 179.33 17.406 179.281C19.3206 179.183 21.0032 179.134 22.4537 179.134C22.6277 179.134 22.7148 179.281 22.7148 179.575C22.7148 179.869 22.6277 180.017 22.4537 180.017C20.7131 180.017 19.3786 180.164 18.4503 180.458C17.58 180.752 16.9998 181.267 16.7097 182.003C16.4196 182.739 16.2746 183.818 16.2746 185.24V219.158Z" fill="#1C1C1E"/>
<path d="M41.4085 186.565C41.4085 188.428 41.9597 190.072 43.062 191.494C44.2224 192.867 45.702 194.118 47.5006 195.246C49.3572 196.374 51.3009 197.503 53.3316 198.631C55.5363 199.808 57.625 201.059 59.5977 202.383C61.6284 203.658 63.282 205.154 64.5584 206.871C65.8929 208.539 66.5601 210.55 66.5601 212.904C66.5601 215.504 65.7188 217.784 64.0362 219.746C62.4117 221.708 60.1779 223.253 57.3349 224.381C54.55 225.46 51.3589 226 47.7617 226C46.0211 226 44.1934 225.853 42.2788 225.559C40.4221 225.264 38.7106 224.896 37.144 224.455C35.6355 224.014 34.5331 223.548 33.8369 223.057C33.6048 222.91 33.4017 222.763 33.2277 222.616C33.0536 222.419 32.9666 222.101 32.9666 221.659L32.7055 209.961C32.6475 209.716 32.7635 209.593 33.0536 209.593C33.4017 209.544 33.6048 209.618 33.6628 209.814C34.5331 211.334 35.4905 212.953 36.5348 214.67C37.5792 216.337 38.7396 217.882 40.016 219.305C41.3505 220.727 42.83 221.904 44.4545 222.836C46.0791 223.719 47.9357 224.161 50.0244 224.161C51.3589 224.161 52.6353 223.964 53.8537 223.572C55.0722 223.18 56.0585 222.468 56.8127 221.438C57.625 220.408 58.0312 218.986 58.0312 217.171C58.0312 214.866 57.422 212.904 56.2035 211.285C54.9851 209.618 53.4186 208.171 51.5039 206.944C49.5893 205.669 47.5876 204.467 45.4989 203.339C43.4682 202.211 41.5245 201.059 39.6679 199.881C37.8113 198.655 36.3027 197.282 35.1423 195.761C33.9819 194.192 33.4017 192.328 33.4017 190.17C33.4017 187.423 34.3011 185.191 36.0997 183.474C37.9563 181.709 40.2771 180.409 43.062 179.575C45.905 178.741 48.777 178.324 51.678 178.324C53.7667 178.324 55.8554 178.496 57.9441 178.839C60.0329 179.134 61.6864 179.502 62.9048 179.943C63.485 180.139 63.8331 180.36 63.9492 180.605C64.1233 180.85 64.2103 181.12 64.2103 181.414V192.23C64.2103 192.377 64.0652 192.499 63.7751 192.598C63.5431 192.647 63.369 192.598 63.253 192.45C62.9048 191.862 62.4117 190.905 61.7734 189.581C61.1352 188.208 60.2939 186.785 59.2496 185.314C58.2052 183.842 56.8708 182.592 55.2462 181.562C53.6217 180.482 51.649 179.943 49.3282 179.943C47.8777 179.943 46.5432 180.188 45.3248 180.679C44.1644 181.169 43.2071 181.905 42.4528 182.886C41.7566 183.818 41.4085 185.044 41.4085 186.565Z" fill="#1C1C1E"/>
<path d="M90.3756 180.826C86.8364 180.826 83.8194 181.831 81.3245 183.842C78.8877 185.804 76.944 188.6 75.4936 192.23C75.4355 192.377 75.2615 192.45 74.9714 192.45C74.6813 192.401 74.5362 192.303 74.5362 192.156C74.6523 191.469 74.7683 190.513 74.8843 189.287C75.0004 188.012 75.1164 186.638 75.2325 185.167C75.4065 183.695 75.5226 182.273 75.5806 180.899C75.6966 179.526 75.7546 178.398 75.7546 177.515C75.7546 177.27 75.8997 177.147 76.1898 177.147C76.5379 177.147 76.712 177.27 76.712 177.515C76.712 178.006 77.0021 178.373 77.5823 178.619C78.2205 178.815 78.9167 178.962 79.671 179.06C80.4833 179.109 81.1505 179.134 81.6727 179.134C86.6624 179.281 92.4934 179.354 99.1656 179.354C103.227 179.354 106.476 179.33 108.913 179.281C111.35 179.183 113.7 179.134 115.962 179.134C118.051 179.134 119.618 179.036 120.662 178.839C121.764 178.594 122.461 178.079 122.751 177.294C122.809 177.098 122.983 177 123.273 177C123.621 177 123.795 177.098 123.795 177.294C123.679 178.079 123.563 179.183 123.447 180.605C123.389 181.978 123.302 183.45 123.186 185.02C123.128 186.54 123.07 187.962 123.012 189.287C122.954 190.562 122.925 191.519 122.925 192.156C122.925 192.303 122.78 192.377 122.49 192.377C122.2 192.377 122.025 192.303 121.967 192.156C121.097 188.281 119.444 185.436 117.007 183.622C114.628 181.758 111.727 180.826 108.304 180.826C107.143 180.826 106.244 180.973 105.606 181.267C105.026 181.513 104.62 181.954 104.387 182.592C104.213 183.229 104.126 184.112 104.126 185.24V219.158C104.126 220.58 104.3 221.659 104.649 222.395C104.997 223.131 105.664 223.621 106.65 223.866C107.695 224.112 109.261 224.234 111.35 224.234C111.524 224.234 111.611 224.381 111.611 224.676C111.611 224.97 111.524 225.117 111.35 225.117C109.725 225.117 107.898 225.093 105.867 225.044C103.836 224.994 101.602 224.97 99.1656 224.97C96.8448 224.97 94.6691 224.994 92.6384 225.044C90.6077 225.093 88.7511 225.117 87.0685 225.117C86.8944 225.117 86.8074 224.97 86.8074 224.676C86.8074 224.381 86.8944 224.234 87.0685 224.234C89.0992 224.234 90.6367 224.112 91.6811 223.866C92.7254 223.621 93.4217 223.131 93.7698 222.395C94.1759 221.659 94.379 220.58 94.379 219.158V185.093C94.379 184.014 94.263 183.18 94.0309 182.592C93.8568 181.954 93.4797 181.513 92.8995 181.267C92.3193 180.973 91.478 180.826 90.3756 180.826Z" fill="#1C1C1E"/>
<path d="M137.161 215.773L138.031 180.826L140.555 180.973L139.598 215.773C139.54 218.373 140.149 220.433 141.425 221.953C142.76 223.474 144.616 224.234 146.995 224.234C147.169 224.234 147.256 224.381 147.256 224.676C147.256 224.97 147.169 225.117 146.995 225.117C145.719 225.117 144.413 225.093 143.079 225.044C141.744 224.994 140.236 224.97 138.553 224.97C136.697 224.97 135.014 224.994 133.506 225.044C131.997 225.093 130.605 225.117 129.328 225.117C129.154 225.117 129.067 224.97 129.067 224.676C129.067 224.381 129.154 224.234 129.328 224.234C131.707 224.234 133.593 223.474 134.985 221.953C136.378 220.433 137.103 218.373 137.161 215.773ZM199.474 224.234C199.59 224.234 199.648 224.381 199.648 224.676C199.648 224.97 199.59 225.117 199.474 225.117C197.966 225.117 196.254 225.093 194.339 225.044C192.425 224.994 190.423 224.97 188.334 224.97C186.188 224.97 184.186 224.994 182.329 225.044C180.473 225.093 178.79 225.117 177.282 225.117C177.108 225.117 177.021 224.97 177.021 224.676C177.021 224.381 177.108 224.234 177.282 224.234C180.009 224.234 181.749 223.915 182.503 223.278C183.316 222.64 183.635 221.267 183.461 219.158L181.459 186.491L185.898 180.605L163.705 224.602C163.647 224.798 163.415 224.896 163.009 224.896C162.661 224.896 162.429 224.798 162.313 224.602L137.857 185.24C135.652 181.758 133.013 180.017 129.937 180.017C129.763 180.017 129.676 179.869 129.676 179.575C129.676 179.281 129.763 179.134 129.937 179.134C131.156 179.134 132.432 179.158 133.767 179.207C135.101 179.256 136.233 179.281 137.161 179.281C138.669 179.281 139.975 179.256 141.077 179.207C142.238 179.158 143.137 179.134 143.775 179.134C144.587 179.134 145.197 179.379 145.603 179.869C146.067 180.36 146.792 181.39 147.779 182.959L167.273 213.86L162.922 220.482L183.287 180.973C183.635 180.286 183.983 179.82 184.331 179.575C184.737 179.281 185.259 179.134 185.898 179.134C186.478 179.134 187.087 179.158 187.725 179.207C188.363 179.256 189.118 179.281 189.988 179.281C191.845 179.281 193.411 179.256 194.688 179.207C196.022 179.158 197.327 179.134 198.604 179.134C198.778 179.134 198.865 179.281 198.865 179.575C198.865 179.869 198.778 180.017 198.604 180.017C195.935 180.017 193.962 180.482 192.686 181.414C191.467 182.346 190.916 183.793 191.032 185.755L193.121 219.158C193.237 220.58 193.44 221.659 193.73 222.395C194.078 223.131 194.688 223.621 195.558 223.866C196.428 224.112 197.734 224.234 199.474 224.234Z" fill="#1C1C1E"/>
<path d="M233.453 226C229.275 226 225.475 225.387 222.052 224.161C218.687 222.885 215.786 221.144 213.349 218.937C210.97 216.73 209.113 214.204 207.779 211.359C206.502 208.465 205.864 205.399 205.864 202.162C205.864 198.189 206.763 194.707 208.562 191.715C210.419 188.723 212.855 186.246 215.873 184.284C218.89 182.273 222.197 180.777 225.794 179.796C229.391 178.815 232.959 178.324 236.499 178.324C240.792 178.324 244.621 178.986 247.987 180.311C251.41 181.586 254.311 183.327 256.689 185.535C259.068 187.742 260.867 190.243 262.085 193.039C263.362 195.835 264 198.704 264 201.647C264 205.081 263.188 208.269 261.563 211.212C259.939 214.155 257.705 216.73 254.862 218.937C252.077 221.144 248.828 222.885 245.115 224.161C241.459 225.387 237.572 226 233.453 226ZM236.325 224.161C239.574 224.161 242.475 223.376 245.028 221.806C247.58 220.237 249.582 217.931 251.033 214.89C252.541 211.849 253.295 208.146 253.295 203.781C253.295 199.268 252.483 195.246 250.858 191.715C249.234 188.183 246.913 185.412 243.896 183.401C240.879 181.341 237.253 180.311 233.017 180.311C227.738 180.311 223.676 182.003 220.833 185.387C217.99 188.772 216.569 193.456 216.569 199.44C216.569 203.021 217.062 206.331 218.048 209.372C219.035 212.364 220.398 214.988 222.139 217.245C223.937 219.452 226.026 221.169 228.405 222.395C230.842 223.572 233.482 224.161 236.325 224.161Z" fill="#1C1C1E"/>
<path d="M10.614 260.276C8.97333 260.276 7.486 259.923 6.152 259.218C4.83333 258.497 3.79067 257.508 3.024 256.251C2.27267 254.978 1.897 253.545 1.897 251.95C1.897 250.355 2.27267 248.929 3.024 247.672C3.79067 246.399 4.83333 245.41 6.152 244.705C7.486 243.984 8.981 243.624 10.637 243.624C12.0323 243.624 13.2897 243.869 14.409 244.36C15.5437 244.851 16.4943 245.556 17.261 246.476L14.869 248.684C13.7803 247.427 12.431 246.798 10.821 246.798C9.82433 246.798 8.935 247.02 8.153 247.465C7.371 247.894 6.75767 248.5 6.313 249.282C5.88367 250.064 5.669 250.953 5.669 251.95C5.669 252.947 5.88367 253.836 6.313 254.618C6.75767 255.4 7.371 256.013 8.153 256.458C8.935 256.887 9.82433 257.102 10.821 257.102C12.431 257.102 13.7803 256.466 14.869 255.193L17.261 257.401C16.4943 258.336 15.5437 259.049 14.409 259.54C13.2743 260.031 12.0093 260.276 10.614 260.276ZM35.2872 260.276C33.6159 260.276 32.1056 259.916 30.7562 259.195C29.4222 258.474 28.3719 257.485 27.6052 256.228C26.8539 254.955 26.4782 253.529 26.4782 251.95C26.4782 250.371 26.8539 248.952 27.6052 247.695C28.3719 246.422 29.4222 245.426 30.7562 244.705C32.1056 243.984 33.6159 243.624 35.2872 243.624C36.9586 243.624 38.4612 243.984 39.7952 244.705C41.1293 245.426 42.1796 246.422 42.9463 247.695C43.7129 248.952 44.0963 250.371 44.0963 251.95C44.0963 253.529 43.7129 254.955 42.9463 256.228C42.1796 257.485 41.1293 258.474 39.7952 259.195C38.4612 259.916 36.9586 260.276 35.2872 260.276ZM35.2872 257.102C36.2379 257.102 37.0966 256.887 37.8633 256.458C38.6299 256.013 39.2279 255.4 39.6573 254.618C40.1019 253.836 40.3242 252.947 40.3242 251.95C40.3242 250.953 40.1019 250.064 39.6573 249.282C39.2279 248.5 38.6299 247.894 37.8633 247.465C37.0966 247.02 36.2379 246.798 35.2872 246.798C34.3366 246.798 33.4779 247.02 32.7112 247.465C31.9446 247.894 31.3389 248.5 30.8942 249.282C30.4649 250.064 30.2502 250.953 30.2502 251.95C30.2502 252.947 30.4649 253.836 30.8942 254.618C31.3389 255.4 31.9446 256.013 32.7112 256.458C33.4779 256.887 34.3366 257.102 35.2872 257.102ZM69.7125 243.9V260H66.6535L58.6265 250.225V260H54.9465V243.9H58.0285L66.0325 253.675V243.9H69.7125ZM86.8617 260.276C85.589 260.276 84.3547 260.107 83.1587 259.77C81.978 259.417 81.0274 258.965 80.3067 258.413L81.5717 255.607C82.2617 256.113 83.082 256.519 84.0327 256.826C84.9834 257.133 85.934 257.286 86.8847 257.286C87.9427 257.286 88.7247 257.133 89.2307 256.826C89.7367 256.504 89.9897 256.082 89.9897 255.561C89.9897 255.178 89.8364 254.863 89.5297 254.618C89.2384 254.357 88.855 254.15 88.3797 253.997C87.9197 253.844 87.291 253.675 86.4937 253.491C85.267 253.2 84.2627 252.908 83.4807 252.617C82.6987 252.326 82.024 251.858 81.4567 251.214C80.9047 250.57 80.6287 249.711 80.6287 248.638C80.6287 247.703 80.8817 246.859 81.3877 246.108C81.8937 245.341 82.6527 244.736 83.6647 244.291C84.692 243.846 85.9417 243.624 87.4137 243.624C88.441 243.624 89.4454 243.747 90.4267 243.992C91.408 244.237 92.2667 244.59 93.0027 245.05L91.8527 247.879C90.3654 247.036 88.878 246.614 87.3907 246.614C86.348 246.614 85.5737 246.783 85.0677 247.12C84.577 247.457 84.3317 247.902 84.3317 248.454C84.3317 249.006 84.6154 249.42 85.1827 249.696C85.7654 249.957 86.647 250.217 87.8277 250.478C89.0544 250.769 90.0587 251.061 90.8407 251.352C91.6227 251.643 92.2897 252.103 92.8417 252.732C93.409 253.361 93.6927 254.212 93.6927 255.285C93.6927 256.205 93.432 257.048 92.9107 257.815C92.4047 258.566 91.638 259.164 90.6107 259.609C89.5834 260.054 88.3337 260.276 86.8617 260.276ZM111.442 260.276C109.142 260.276 107.348 259.64 106.06 258.367C104.787 257.094 104.151 255.277 104.151 252.916V243.9H107.877V252.778C107.877 255.661 109.073 257.102 111.465 257.102C112.63 257.102 113.519 256.757 114.133 256.067C114.746 255.362 115.053 254.265 115.053 252.778V243.9H118.733V252.916C118.733 255.277 118.089 257.094 116.801 258.367C115.528 259.64 113.742 260.276 111.442 260.276ZM130.465 243.9H134.191V256.964H142.264V260H130.465V243.9ZM154.226 246.936H149.074V243.9H163.104V246.936H157.952V260H154.226V246.936ZM180.731 260.276C179.059 260.276 177.549 259.916 176.2 259.195C174.866 258.474 173.815 257.485 173.049 256.228C172.297 254.955 171.922 253.529 171.922 251.95C171.922 250.371 172.297 248.952 173.049 247.695C173.815 246.422 174.866 245.426 176.2 244.705C177.549 243.984 179.059 243.624 180.731 243.624C182.402 243.624 183.905 243.984 185.239 244.705C186.573 245.426 187.623 246.422 188.39 247.695C189.156 248.952 189.54 250.371 189.54 251.95C189.54 253.529 189.156 254.955 188.39 256.228C187.623 257.485 186.573 258.474 185.239 259.195C183.905 259.916 182.402 260.276 180.731 260.276ZM180.731 257.102C181.681 257.102 182.54 256.887 183.307 256.458C184.073 256.013 184.671 255.4 185.101 254.618C185.545 253.836 185.768 252.947 185.768 251.95C185.768 250.953 185.545 250.064 185.101 249.282C184.671 248.5 184.073 247.894 183.307 247.465C182.54 247.02 181.681 246.798 180.731 246.798C179.78 246.798 178.921 247.02 178.155 247.465C177.388 247.894 176.782 248.5 176.338 249.282C175.908 250.064 175.694 250.953 175.694 251.95C175.694 252.947 175.908 253.836 176.338 254.618C176.782 255.4 177.388 256.013 178.155 256.458C178.921 256.887 179.78 257.102 180.731 257.102ZM210.648 260L207.543 255.515H207.359H204.116V260H200.39V243.9H207.359C208.785 243.9 210.019 244.138 211.062 244.613C212.12 245.088 212.933 245.763 213.5 246.637C214.067 247.511 214.351 248.546 214.351 249.742C214.351 250.938 214.06 251.973 213.477 252.847C212.91 253.706 212.097 254.365 211.039 254.825L214.65 260H210.648ZM210.579 249.742C210.579 248.837 210.288 248.147 209.705 247.672C209.122 247.181 208.271 246.936 207.152 246.936H204.116V252.548H207.152C208.271 252.548 209.122 252.303 209.705 251.812C210.288 251.321 210.579 250.631 210.579 249.742ZM237.819 257.01V260H225.353V243.9H237.52V246.89H229.056V250.386H236.531V253.284H229.056V257.01H237.819ZM254.124 260.276C252.851 260.276 251.617 260.107 250.421 259.77C249.24 259.417 248.289 258.965 247.569 258.413L248.834 255.607C249.524 256.113 250.344 256.519 251.295 256.826C252.245 257.133 253.196 257.286 254.147 257.286C255.205 257.286 255.987 257.133 256.493 256.826C256.999 256.504 257.252 256.082 257.252 255.561C257.252 255.178 257.098 254.863 256.792 254.618C256.5 254.357 256.117 254.15 255.642 253.997C255.182 253.844 254.553 253.675 253.756 253.491C252.529 253.2 251.525 252.908 250.743 252.617C249.961 252.326 249.286 251.858 248.719 251.214C248.167 250.57 247.891 249.711 247.891 248.638C247.891 247.703 248.144 246.859 248.65 246.108C249.156 245.341 249.915 244.736 250.927 244.291C251.954 243.846 253.204 243.624 254.676 243.624C255.703 243.624 256.707 243.747 257.689 243.992C258.67 244.237 259.529 244.59 260.265 245.05L259.115 247.879C257.627 247.036 256.14 246.614 254.653 246.614C253.61 246.614 252.836 246.783 252.33 247.12C251.839 247.457 251.594 247.902 251.594 248.454C251.594 249.006 251.877 249.42 252.445 249.696C253.027 249.957 253.909 250.217 255.09 250.478C256.316 250.769 257.321 251.061 258.103 251.352C258.885 251.643 259.552 252.103 260.104 252.732C260.671 253.361 260.955 254.212 260.955 255.285C260.955 256.205 260.694 257.048 260.173 257.815C259.667 258.566 258.9 259.164 257.873 259.609C256.845 260.054 255.596 260.276 254.124 260.276Z" fill="#6B6B6B"/>
<path d="M112.5 57.5V112.5L150.5 111.5V40L112.5 57.5Z" fill="url(#paint0_linear_22_24)"/>
<path d="M164 21.5V112.5C165.667 112.5 174.6 113.4 183 115C191.4 116.6 198.333 118.833 202.5 120V0L164 21.5Z" fill="url(#paint1_linear_22_24)"/>
<path d="M61 29.5V125C64 124.167 70 122 79.5 119.5C87.2075 117.472 96 115.5 99.5 115V41L61 29.5Z" fill="url(#paint2_linear_22_24)"/>
<path d="M93.5 123.5C63.1 129.5 43.1667 140 37 144.5C52.5 141 73.2 141 80 141C86.8 141 95.3333 142.333 103.5 143C114.5 137.5 134.5 130.4 156.5 128C178.5 125.6 218.167 130.5 229 133.5C205.8 125.1 178.667 121.5 169 120.5C155.833 119.167 123.9 117.5 93.5 123.5Z" fill="url(#paint3_linear_22_24)"/>
<path d="M165 144V134.5C171 133.5 177.5 133 187 133C193.4 133 200.5 133.5 203 134V144H165Z" fill="url(#paint4_linear_22_24)"/>
<defs>
<linearGradient id="paint0_linear_22_24" x1="97.5" y1="136.5" x2="173.5" y2="32" gradientUnits="userSpaceOnUse">
<stop stop-color="#2E5090"/>
<stop offset="1" stop-color="#5B8CC8"/>
</linearGradient>
<linearGradient id="paint1_linear_22_24" x1="183" y1="28" x2="183" y2="85.5" gradientUnits="userSpaceOnUse">
<stop stop-color="#9EC3E8"/>
<stop offset="1" stop-color="#5B8CC8"/>
</linearGradient>
<linearGradient id="paint2_linear_22_24" x1="61" y1="98.7069" x2="99.5" y2="55.7931" gradientUnits="userSpaceOnUse">
<stop stop-color="#1B2E4E"/>
<stop offset="1" stop-color="#3E6AB4"/>
</linearGradient>
<linearGradient id="paint3_linear_22_24" x1="-46.5" y1="119" x2="-43.786" y2="93.6495" gradientUnits="userSpaceOnUse">
<stop stop-color="#1B2E4E"/>
<stop offset="0.922289" stop-color="#3E6AB4"/>
</linearGradient>
<linearGradient id="paint4_linear_22_24" x1="172.5" y1="157" x2="178.439" y2="113.566" gradientUnits="userSpaceOnUse">
<stop stop-color="#1B2E4E"/>
<stop offset="0.964214" stop-color="#3E6AB4"/>
</linearGradient>
</defs>
</svg>
